<?xml version="1.0" standalone="no"?>
<!DOCTYPE svg PUBLIC "-//W3C//DTD SVG 20010904//EN"
 "http://www.w3.org/TR/2001/REC-SVG-20010904/DTD/svg10.dtd">
<svg version="1.0" xmlns="http://www.w3.org/2000/svg"
 width="512.000000pt" height="512.000000pt" viewBox="0 0 512.000000 512.000000"
 preserveAspectRatio="xMidYMid meet">

<g transform="translate(0.000000,512.000000) scale(0.100000,-0.100000)"
fill="#000000" stroke="none">
<path d="M1106 5018 c-14 -13 -39 -60 -56 -104 -28 -74 -34 -82 -61 -88 -17
-3 -69 -24 -115 -45 l-85 -40 -80 35 c-45 18 -93 34 -108 34 -39 0 -291 -253
-291 -292 0 -15 16 -63 35 -106 l35 -80 -40 -85 c-22 -47 -43 -99 -46 -116 -6
-27 -14 -33 -88 -61 -127 -48 -126 -47 -126 -260 0 -213 -1 -212 126 -260 74
-28 82 -34 88 -61 3 -17 24 -69 46 -116 l40 -85 -35 -80 c-19 -43 -35 -91 -35
-106 0 -39 253 -292 292 -292 15 0 63 16 106 35 l80 35 85 -40 c47 -22 99 -43
116 -46 27 -6 33 -14 61 -88 44 -116 58 -126 176 -126 l94 0 0 -599 c0 -398 4
-609 11 -628 51 -134 286 -256 614 -317 196 -37 325 -48 584 -52 l264 -3 22
-53 c12 -29 32 -72 44 -96 l22 -42 -36 -81 c-19 -44 -35 -92 -35 -107 0 -39
253 -292 292 -292 14 0 62 16 107 34 l80 35 85 -40 c46 -21 98 -42 115 -45 27
-6 33 -14 61 -88 48 -127 47 -126 260 -126 213 0 212 -1 260 126 28 74 34 82
61 88 17 3 69 24 116 46 l85 40 80 -35 c43 -19 91 -35 106 -35 39 0 292 253
292 292 0 15 -16 63 -35 106 l-35 80 40 85 c22 47 43 99 46 116 6 28 14 33 91
62 124 47 123 45 123 259 0 214 1 212 -123 259 -77 29 -85 34 -91 62 -3 17
-24 69 -46 116 l-40 85 35 80 c19 43 35 91 35 106 0 39 -253 292 -292 292 -15
0 -63 -16 -106 -35 l-80 -35 -85 40 c-47 22 -99 43 -116 46 -27 6 -33 14 -61
88 -44 116 -58 126 -176 126 l-94 0 0 599 c0 398 -4 609 -11 628 -85 223 -638
383 -1287 371 l-174 -3 -22 55 c-13 30 -33 74 -45 98 l-22 42 36 81 c19 44 35
92 35 107 0 39 -253 292 -292 292 -15 0 -63 -16 -106 -35 l-80 -35 -85 40
c-47 22 -99 43 -116 46 -27 6 -33 14 -61 88 -48 127 -47 126 -260 126 -171 0
-180 -1 -204 -22z m335 -216 c15 -41 33 -80 40 -88 6 -7 43 -23 83 -35 39 -11
111 -41 159 -65 49 -24 96 -44 105 -44 9 0 51 16 92 34 l75 34 72 -70 71 -71
-25 -56 c-52 -114 -52 -111 -1 -214 26 -50 56 -124 67 -163 12 -40 27 -76 34
-82 6 -6 46 -24 87 -40 l75 -30 0 -102 0 -103 -73 -28 c-41 -15 -80 -33 -88
-40 -7 -6 -23 -43 -35 -83 -11 -39 -41 -113 -67 -163 -51 -103 -51 -100 1
-214 l25 -56 -71 -71 -72 -70 -75 34 c-41 18 -83 34 -92 34 -9 0 -56 -20 -105
-44 -48 -24 -120 -54 -159 -65 -40 -12 -77 -28 -83 -35 -7 -8 -25 -47 -40 -88
l-28 -73 -103 0 -103 0 -28 73 c-15 41 -33 80 -39 87 -6 7 -48 25 -93 40 -45
14 -119 45 -164 67 -91 46 -90 46 -204 -5 l-56 -25 -71 71 -70 72 34 75 c18
41 34 83 34 92 0 9 -20 56 -44 105 -24 48 -54 120 -65 159 -12 40 -28 77 -35
83 -8 7 -47 25 -88 40 l-73 28 0 103 0 103 73 28 c41 15 80 33 88 40 7 6 23
43 35 83 11 39 41 113 67 163 51 103 51 100 -1 214 l-25 56 71 71 72 70 75
-34 c41 -18 83 -34 92 -34 9 0 57 20 105 44 48 24 121 54 161 65 77 23 90 35
116 106 8 22 19 53 25 68 l11 28 101 -3 102 -3 28 -73z m1536 -847 c164 -21
262 -42 379 -80 124 -41 193 -75 244 -122 54 -48 53 -78 0 -127 -103 -93 -343
-168 -660 -208 -100 -12 -622 -19 -633 -8 -3 3 2 29 11 58 l17 52 80 31 c126
47 125 46 125 256 l0 176 160 -6 c87 -4 212 -14 277 -22z m663 -771 c0 -169
-4 -273 -11 -285 -30 -56 -210 -138 -404 -184 -210 -51 -316 -60 -665 -60
-286 1 -342 3 -467 23 -156 24 -296 58 -387 92 l-60 23 93 43 93 44 80 -35
c43 -19 91 -35 106 -35 21 0 55 28 159 132 149 149 150 150 108 244 -14 31
-25 57 -25 58 0 0 134 1 298 1 228 1 327 5 427 19 252 34 452 86 575 149 36
19 68 35 73 35 4 1 7 -118 7 -264z m-29 -663 c-19 -17 -41 -55 -61 -107 -28
-74 -34 -82 -61 -88 -17 -3 -69 -24 -116 -46 l-85 -40 -80 35 c-43 19 -91 35
-106 35 -21 0 -55 -28 -159 -132 -143 -143 -148 -151 -118 -221 8 -20 15 -40
15 -45 0 -16 -317 -24 -490 -12 -402 27 -705 107 -835 221 l-35 31 0 210 0
209 33 32 c19 18 36 38 38 45 3 10 18 7 61 -12 206 -91 559 -146 940 -146 456
0 815 65 1048 189 l35 19 3 -75 c3 -73 2 -77 -27 -102z m330 -219 c15 -41 33
-80 40 -88 6 -7 43 -23 83 -35 39 -11 111 -41 159 -65 49 -24 96 -44 105 -44
9 0 51 16 92 34 l75 34 72 -70 71 -71 -25 -56 c-52 -114 -52 -111 -1 -214 26
-50 56 -124 67 -163 12 -40 28 -77 35 -83 8 -7 47 -25 88 -40 l73 -28 0 -103
0 -102 -75 -30 c-41 -16 -81 -34 -87 -40 -7 -6 -22 -42 -34 -82 -11 -39 -41
-113 -67 -163 -51 -103 -51 -100 1 -214 l25 -56 -71 -71 -72 -70 -75 34 c-41
18 -83 34 -92 34 -9 0 -56 -20 -105 -44 -48 -24 -120 -54 -159 -65 -40 -12
-77 -28 -83 -35 -7 -8 -25 -47 -40 -88 l-28 -73 -103 0 -103 0 -28 73 c-15 41
-33 80 -39 87 -6 7 -48 25 -92 39 -45 15 -116 44 -160 66 -43 22 -86 40 -96
40 -9 0 -51 -16 -92 -34 l-75 -34 -72 70 -71 71 25 56 c52 114 52 111 1 214
-26 50 -56 124 -67 163 -12 40 -28 77 -35 83 -8 7 -47 25 -88 40 l-73 28 -3
84 c-4 119 -3 121 71 148 94 33 104 42 128 124 11 40 41 114 67 164 51 103 51
100 -1 214 l-25 56 71 71 72 70 75 -34 c41 -18 83 -34 92 -34 9 0 56 20 105
44 48 24 121 54 161 66 77 22 90 34 116 105 8 22 19 53 25 68 l11 28 101 -3
102 -3 28 -73z m-2246 -450 c252 -84 661 -132 989 -116 144 6 149 6 142 -12
-4 -11 -15 -43 -24 -72 l-16 -52 -81 -31 c-44 -17 -84 -35 -90 -40 -5 -5 -47
-9 -95 -9 -95 0 -129 -12 -148 -54 -11 -22 -11 -33 -2 -57 18 -42 37 -49 129
-49 l81 0 0 -112 0 -111 -162 7 c-418 18 -767 104 -896 221 l-42 37 0 273 0
273 63 -33 c34 -18 103 -47 152 -63z"/>
<path d="M1174 4466 c-246 -56 -432 -228 -506 -466 -18 -60 -23 -98 -23 -190
0 -194 58 -335 194 -471 208 -207 506 -256 771 -126 66 32 103 59 166 122 141
139 199 278 199 475 0 194 -58 335 -194 471 -128 127 -265 187 -446 195 -64 2
-122 -1 -161 -10z m255 -161 c90 -22 170 -67 239 -137 202 -201 202 -515 0
-716 -202 -203 -518 -201 -720 3 -196 198 -196 512 0 710 129 130 305 181 481
140z"/>
<path d="M2402 3013 c-21 -8 -43 -61 -36 -88 3 -14 18 -34 31 -45 23 -18 41
-20 163 -20 122 0 140 2 163 20 13 11 28 31 31 45 7 29 -15 79 -39 89 -20 7
-294 7 -313 -1z"/>
<path d="M2394 2247 c-20 -17 -27 -33 -27 -57 0 -24 7 -40 27 -57 26 -22 35
-23 166 -23 131 0 140 1 166 23 37 33 37 81 0 114 -26 22 -35 23 -166 23 -131
0 -140 -1 -166 -23z"/>
<path d="M3674 1965 c-243 -53 -432 -227 -506 -465 -18 -60 -23 -98 -23 -190
0 -194 58 -335 194 -471 136 -136 277 -194 471 -194 194 0 335 58 471 194 136
136 194 277 194 471 0 197 -58 336 -199 475 -63 63 -100 90 -166 122 -139 68
-295 89 -436 58z m255 -160 c133 -32 266 -134 330 -254 205 -386 -142 -836
-569 -735 -179 42 -332 195 -375 375 -87 370 244 701 614 614z"/>
<path d="M2730 4597 c-38 -19 -55 -61 -40 -98 7 -16 18 -33 24 -37 6 -4 389
-9 851 -12 l840 -5 2 -700 2 -700 -19 25 c-52 64 -59 70 -90 70 -43 0 -66 -14
-78 -48 -13 -39 3 -73 120 -242 102 -147 127 -167 176 -140 34 19 242 326 242
358 0 12 -11 34 -25 48 -20 20 -34 24 -62 22 -30 -2 -43 -11 -70 -46 l-33 -43
-2 755 -3 755 -23 23 -23 23 -882 2 c-698 2 -887 0 -907 -10z"/>
<path d="M578 2401 c-35 -28 -228 -323 -228 -349 0 -13 11 -34 25 -48 20 -20
34 -24 62 -22 30 2 43 11 70 46 l33 43 2 -755 3 -755 23 -23 23 -23 882 -2
c950 -3 919 -5 945 49 10 23 10 33 -2 63 -8 19 -16 36 -18 37 -2 2 -383 5
-848 8 l-845 5 -2 700 -2 700 19 -25 c52 -64 59 -70 90 -70 43 0 66 14 78 48
13 39 3 61 -112 229 -116 171 -141 189 -198 144z"/>
</g>
</svg>
