<?xml version="1.0" standalone="no"?>
<!DOCTYPE svg PUBLIC "-//W3C//DTD SVG 20010904//EN"
 "http://www.w3.org/TR/2001/REC-SVG-20010904/DTD/svg10.dtd">
<svg version="1.0" xmlns="http://www.w3.org/2000/svg"
 width="512.000000pt" height="512.000000pt" viewBox="0 0 512.000000 512.000000"
 preserveAspectRatio="xMidYMid meet">

<g transform="translate(0.000000,512.000000) scale(0.100000,-0.100000)"
fill="#000000" stroke="none">
<path d="M1935 4600 c-792 -90 -1436 -614 -1678 -1366 -51 -156 -55 -186 -28
-213 20 -20 31 -21 190 -21 137 0 172 3 184 15 9 8 30 59 47 112 190 578 692
987 1304 1063 130 17 360 7 488 -20 516 -108 950 -470 1139 -948 l38 -97 -80
-5 c-65 -4 -83 -9 -95 -24 -31 -43 -41 -30 219 -313 166 -182 182 -193 225
-155 11 9 99 104 196 210 139 153 176 200 176 221 0 49 -26 61 -126 61 l-89 0
-33 108 c-219 704 -817 1225 -1552 1353 -132 23 -401 33 -525 19z"/>
<path d="M1158 3582 c-53 -32 -58 -60 -58 -296 l0 -216 1030 0 1030 0 0 231 0
231 -34 34 -34 34 -953 0 c-881 -1 -956 -2 -981 -18z m504 -69 c172 -124 82
-394 -132 -393 -69 1 -151 56 -188 125 -40 77 -10 205 61 259 50 38 76 46 149
43 57 -2 73 -7 110 -34z m1243 -48 c29 -28 31 -42 9 -73 l-15 -22 -491 0
c-443 0 -493 2 -510 17 -24 21 -23 58 2 83 19 19 33 20 500 20 l481 0 24 -25z
m-509 -179 c19 -26 18 -55 -3 -78 -15 -16 -36 -18 -246 -18 -200 0 -233 2
-249 17 -31 27 -18 81 22 96 8 3 115 5 238 4 209 -2 225 -3 238 -21z"/>
<path d="M1487 3419 c-27 -16 -49 -67 -42 -99 8 -38 58 -80 96 -80 17 0 40 11
58 28 65 60 29 162 -58 162 -20 0 -44 -5 -54 -11z"/>
<path d="M1170 2933 c-66 -34 -70 -52 -70 -373 0 -321 4 -339 70 -373 33 -16
95 -17 978 -15 l944 3 34 37 34 38 0 310 0 310 -34 38 -34 37 -944 3 c-883 2
-945 1 -978 -15z m465 -180 c76 -38 117 -106 117 -193 0 -203 -250 -292 -380
-134 -144 175 60 428 263 327z m1275 -63 c11 -11 20 -29 20 -40 0 -11 -9 -29
-20 -40 -19 -19 -33 -20 -503 -20 -532 0 -527 -1 -527 60 0 61 -5 60 527 60
470 0 484 -1 503 -20z m-522 -176 c26 -18 29 -60 5 -86 -15 -16 -36 -18 -242
-18 -252 0 -271 4 -271 60 0 56 20 60 265 60 183 0 224 -3 243 -16z"/>
<path d="M1505 2651 c-62 -26 -81 -110 -35 -155 35 -34 68 -40 110 -19 62 31
71 123 16 158 -29 19 -67 26 -91 16z"/>
<path d="M4008 2584 c-40 -21 -58 -63 -58 -138 0 -57 -3 -65 -21 -71 -15 -5
-33 5 -74 44 -44 42 -60 51 -90 51 -55 0 -80 -18 -206 -147 -125 -128 -141
-157 -115 -216 8 -18 32 -50 54 -71 57 -54 46 -72 -46 -78 -75 -6 -112 -24
-130 -64 -8 -16 -12 -91 -12 -207 0 -200 3 -213 60 -242 16 -8 55 -15 89 -15
87 0 94 -18 31 -86 -51 -57 -65 -98 -49 -142 14 -36 236 -260 276 -278 47 -20
88 -7 147 46 68 63 86 56 86 -31 0 -34 7 -73 15 -89 29 -57 42 -60 242 -60
116 0 191 4 207 12 40 17 57 53 63 129 8 93 25 104 79 47 21 -22 53 -46 71
-54 59 -26 88 -10 216 115 129 126 147 151 147 206 0 30 -9 46 -50 89 -38 40
-48 57 -43 74 5 20 12 22 70 22 78 0 120 19 139 65 19 45 20 358 1 394 -22 44
-60 63 -136 69 -86 6 -96 20 -48 71 53 56 67 82 67 125 0 38 -7 47 -138 178
-128 129 -140 138 -176 138 -47 0 -70 -12 -122 -62 -56 -53 -70 -45 -76 43 -6
76 -25 114 -69 136 -37 19 -365 17 -401 -3z m347 -411 c217 -68 356 -254 356
-479 1 -145 -41 -244 -145 -350 -164 -164 -379 -198 -588 -93 -183 92 -294
316 -260 522 22 134 103 258 218 338 115 79 283 104 419 62z"/>
<path d="M4152 2070 c-269 -40 -409 -363 -254 -590 76 -111 181 -165 322 -165
76 0 93 4 150 32 159 78 242 231 218 404 -20 149 -153 291 -294 314 -74 12
-89 13 -142 5z"/>
<path d="M239 2343 c-84 -93 -172 -189 -196 -215 -46 -50 -52 -72 -29 -104 12
-16 30 -20 110 -24 l97 -5 43 -130 c53 -156 96 -254 171 -380 571 -970 1835
-1266 2775 -651 97 64 223 160 228 175 3 8 -172 349 -186 363 -4 4 -43 -25
-87 -63 -211 -183 -446 -300 -725 -360 -89 -20 -135 -23 -305 -23 -220 0 -319
15 -499 75 -420 140 -788 483 -945 880 -51 130 -53 119 31 119 79 0 89 4 107
38 9 17 9 27 0 45 -12 22 -305 348 -360 400 -52 49 -63 43 -230 -140z"/>
<path d="M1100 1834 c0 -240 5 -265 63 -299 31 -19 59 -20 927 -23 492 -2 920
0 949 3 44 6 62 14 88 40 l33 33 0 231 0 231 -1030 0 -1030 0 0 -216z m503
155 c21 -5 53 -24 73 -41 108 -95 101 -258 -14 -342 -40 -28 -51 -31 -121 -31
-68 0 -83 3 -119 27 -62 41 -97 109 -96 183 1 66 17 105 61 149 57 58 134 78
216 55z m1313 -84 c19 -29 11 -60 -20 -81 -20 -12 -90 -14 -505 -12 -464 3
-483 4 -497 22 -19 26 -18 55 3 78 15 17 44 18 509 18 l494 0 16 -25z m-524
-172 c24 -21 23 -58 -2 -83 -19 -19 -33 -20 -245 -20 -212 0 -226 1 -245 20
-24 24 -26 57 -3 82 15 16 36 18 246 18 200 0 233 -2 249 -17z"/>
<path d="M1493 1868 c-29 -14 -56 -73 -48 -105 10 -42 49 -73 93 -73 90 0 128
101 61 163 -31 28 -67 34 -106 15z"/>
</g>
</svg>
